<?xml version="1.0" encoding="UTF-8"?>
<svg version="1.1" xmlns="http://www.w3.org/2000/svg" width="75" height="58">
<path d="M0 0 C1.76586914 0.07006836 1.76586914 0.07006836 4.03515625 0.33984375 C5.24848633 0.4800293 5.24848633 0.4800293 6.48632812 0.62304688 C7.33646484 0.72681641 8.18660156 0.83058594 9.0625 0.9375 C10.34350586 1.08735352 10.34350586 1.08735352 11.65039062 1.24023438 C13.76750514 1.48861094 15.88383163 1.74368731 18 2 C19.485 9.92 19.485 9.92 21 18 C19.26363281 18.48919922 19.26363281 18.48919922 17.4921875 18.98828125 C15.95303666 19.42937936 14.41397905 19.87080289 12.875 20.3125 C11.73417969 20.63250977 11.73417969 20.63250977 10.5703125 20.95898438 C6.09852278 22.25040641 2.14890433 23.84988393 -2 26 C-2.66 26 -3.32 26 -4 26 C-4.33 27.65 -4.66 29.3 -5 31 C-4.01 30.34 -3.02 29.68 -2 29 C1.1875 28.875 1.1875 28.875 4 29 C4.33 31.64 4.66 34.28 5 37 C6.98 36.505 6.98 36.505 9 36 C9.33 36.99 9.66 37.98 10 39 C7.125 39.625 7.125 39.625 4 40 C2 38 2 38 1.875 34.375 C1.91625 33.26125 1.9575 32.1475 2 31 C1.34 31 0.68 31 0 31 C0.29197266 31.85851563 0.29197266 31.85851563 0.58984375 32.734375 C1.0808174 35.44641994 0.61252062 36.72995052 -0.4375 39.25 C-0.72496094 39.95640625 -1.01242188 40.6628125 -1.30859375 41.390625 C-1.53675781 41.92171875 -1.76492187 42.4528125 -2 43 C-1.01 42.505 -1.01 42.505 0 42 C1.99960012 41.960008 4.00047242 41.95653201 6 42 C6 42.99 6 43.98 6 45 C5.09507813 45.15082031 5.09507813 45.15082031 4.171875 45.3046875 C1.47918555 45.93877244 -0.60616446 46.59501219 -3 48 C-4.94674155 51.17303544 -6.03838084 54.41578313 -7 58 C-7.99 57.67 -8.98 57.34 -10 57 C-9.34 54.03 -8.68 51.06 -8 48 C-9.32 48 -10.64 48 -12 48 C-11.8125 46.125 -11.8125 46.125 -11 44 C-10.21625 43.773125 -9.4325 43.54625 -8.625 43.3125 C-5.85859636 42.26808683 -5.85859636 42.26808683 -5.00390625 39.87890625 C-4.26058613 37.59915412 -3.58825286 35.32431616 -3 33 C-4.32 32.67 -5.64 32.34 -7 32 C-7.125 29.625 -7.125 29.625 -7 27 C-6.34 26.34 -5.68 25.68 -5 25 C-4.36633188 22.50355404 -4.36633188 22.50355404 -3.96484375 19.58984375 C-3.79533203 18.51798828 -3.62582031 17.44613281 -3.45117188 16.34179688 C-3.28166016 15.21837891 -3.11214844 14.09496094 -2.9375 12.9375 C-2.59596747 10.71690375 -2.25109904 8.4968171 -1.90234375 6.27734375 C-1.75273193 5.28984131 -1.60312012 4.30233887 -1.44897461 3.28491211 C-1 1 -1 1 0 0 Z " fill="#378FAD" transform="translate(47,0)"/>
<path d="M0 0 C0.99 0 1.98 0 3 0 C2.125 5.75 2.125 5.75 1 8 C2.04800781 7.48308594 3.09601562 6.96617188 4.17578125 6.43359375 C5.55443783 5.767712 6.93335793 5.10237565 8.3125 4.4375 C9.00279297 4.09525391 9.69308594 3.75300781 10.40429688 3.40039062 C15.66015625 0.88671875 15.66015625 0.88671875 19 2 C14.6644622 7.23254562 9.29579406 9.61753365 3 12 C2.34 12 1.68 12 1 12 C1.43570312 12.49628906 1.87140625 12.99257813 2.3203125 13.50390625 C3.56308365 14.92152615 4.80385446 16.34090135 6.04296875 17.76171875 C7.28897191 19.18678823 8.54095485 20.60666737 9.80078125 22.01953125 C10.34089844 22.63183594 10.88101562 23.24414062 11.4375 23.875 C11.93121094 24.42929687 12.42492187 24.98359375 12.93359375 25.5546875 C14 27 14 27 14 29 C11.7890625 29.33984375 11.7890625 29.33984375 9 29 C6.6484375 26.62890625 6.6484375 26.62890625 4.375 23.5625 C1.42077296 19.29017913 1.42077296 19.29017913 -3 17 C-4.98 20.96 -6.96 24.92 -9 29 C-9.66 29 -10.32 29 -11 29 C-10.43093823 24.77968545 -9.44043969 21.27086411 -7.71484375 17.3828125 C-7.04291992 15.85527344 -7.04291992 15.85527344 -6.35742188 14.296875 C-5.88884766 13.25015625 -5.42027344 12.2034375 -4.9375 11.125 C-4.46505859 10.05507813 -3.99261719 8.98515625 -3.50585938 7.8828125 C-2.34332699 5.2524362 -1.17455398 2.62502483 0 0 Z " fill="#378FAD" transform="translate(11,29)"/>
<path d="M0 0 C0.680625 0.28875 1.36125 0.5775 2.0625 0.875 C2.3925 2.195 2.7225 3.515 3.0625 4.875 C2.0725 5.205 1.0825 5.535 0.0625 5.875 C-0.2675 5.215 -0.5975 4.555 -0.9375 3.875 C-5.28743684 7.16161894 -7.9346223 9.64526379 -9.9375 14.875 C-9.9375 16.195 -9.9375 17.515 -9.9375 18.875 C-6.21135847 17.75645414 -6.21135847 17.75645414 -3.9375 14.875 C-5.2575 14.545 -6.5775 14.215 -7.9375 13.875 C-4.41622239 9.2820292 -0.36002403 8.75558083 5.0625 7.875 C5.0625 12.87518175 3.93834148 13.59341329 0.5 17.0625 C-0.34691406 17.94292969 -1.19382812 18.82335937 -2.06640625 19.73046875 C-5.43089671 22.24353714 -7.79530333 22.61387265 -11.9375 22.875 C-14.32371806 19.29567291 -14.4160033 18.10177916 -13.9375 13.875 C-11.87059442 7.67428325 -7.28021566 -0.30979641 0 0 Z " fill="#378FAC" transform="translate(25.9375,4.125)"/>
<path d="M0 0 C0.75 2.25 0.75 2.25 1 5 C-1.95444968 9.11053868 -6.72842768 11.43705661 -11 14 C-7.04 13.01 -3.08 12.02 1 11 C1 12.32 1 13.64 1 15 C-7.95217391 18.70434783 -7.95217391 18.70434783 -13 18 C-14.9375 16.875 -14.9375 16.875 -16 15 C-16.21328314 10.41441251 -14.43092382 8.02900416 -11.5625 4.6875 C-7.68125568 0.43352658 -5.78912423 -0.12585053 0 0 Z " fill="#378FAD" transform="translate(65,40)"/>
<path d="M0 0 C0.75 2.125 0.75 2.125 1 5 C-1.00676626 8.6551814 -2.51788125 10.6785875 -6 13 C-8.6875 13.125 -8.6875 13.125 -11 13 C-11.90852409 10.50155876 -12.2567163 8.72066142 -11.3515625 6.1796875 C-9.71484234 3.05027855 -8.52898878 1.30965197 -5.4375 -0.5 C-3 -1 -3 -1 0 0 Z M-5 3 C-8.02517909 6.05558423 -8.02517909 6.05558423 -9 10 C-6.13275314 9.42655063 -5.1385485 9.1385485 -3 7 C-3 5.68 -3 4.36 -3 3 C-3.66 3 -4.32 3 -5 3 Z " fill="#378FAD" transform="translate(41,14)"/>
<path d="M0 0 C0.66 0 1.32 0 2 0 C2.56561146 5.65611463 0.71391278 9.22642128 -2 14 C-2.99 14 -3.98 14 -5 14 C-3.1643002 4.0872211 -3.1643002 4.0872211 0 0 Z " fill="#378FAD" transform="translate(31,44)"/>
<path d="M0 0 C1.32 0.33 2.64 0.66 4 1 C3.67 1.99 3.34 2.98 3 4 C2.01 3.67 1.02 3.34 0 3 C0 2.01 0 1.02 0 0 Z " fill="#388FAC" transform="translate(32,38)"/>
</svg>
